<?xml version="1.0" standalone="no"?><!DOCTYPE svg PUBLIC "-//W3C//DTD SVG 1.1//EN" "http://www.w3.org/Graphics/SVG/1.1/DTD/svg11.dtd"><svg t="1604814149382" class="icon" viewBox="0 0 1024 1024" version="1.1" xmlns="http://www.w3.org/2000/svg" p-id="2899" xmlns:xlink="http://www.w3.org/1999/xlink" width="81" height="81"><defs><style type="text/css"></style></defs><path d="M788.3 237.6h95.2c11.2 0 20.5-9.3 20.5-20.5 0-5.5-1.9-9.3-5.5-15L764.1 69.5c-3.8-3.8-7.4-5.5-13.1-5.5-11.2 0-20.5 9.3-20.5 20.5v95.2c0 31.7 26 57.9 57.8 57.9z m0 0" p-id="2900" data-spm-anchor-id="a313x.7781069.0.i3" class="selected" fill="#fa897b"></path><path d="M874.2 323.4H728.6c-48.6 0-87.7-39.2-87.7-85.8V91.9c1.9-15-11.2-27.9-27.9-27.9H381.4c-48.6 0-87.7 39.1-87.7 85.8v548.9c0 48.6 39.1 85.8 87.7 85.8h435c48.6 0 87.7-39.2 87.7-85.8V353.2c-0.1-16.7-13.1-29.8-29.9-29.8z m0 0" p-id="2901" data-spm-anchor-id="a313x.7781069.0.i0" class="selected" fill="#fa897b"></path><path d="M207.7 700.5V237.6c-48.6 0-87.7 39.2-87.7 85.8v548.9c0 48.6 39.1 87.7 87.7 87.7h435c48.6 0 87.7-39.2 87.7-85.8h-349c-95.3 0-173.7 0-173.7-173.7z m0 0" p-id="2902" data-spm-anchor-id="a313x.7781069.0.i1" class="selected" fill="#fa897b"></path></svg>